<svg width="69" height="31" viewBox="0 0 69 31" fill="none" xmlns="http://www.w3.org/2000/svg">
<path d="M20.3388 10.6191L19.7508 8.85514H15.8448L15.2568 10.6191H13.1708L16.6008 0.81914H18.9948L22.4388 10.6191H20.3388ZM16.4608 7.04914H19.1488L17.8048 3.04514L16.4608 7.04914ZM28.4209 0.81914H30.2269V10.6191H28.4209V9.79314C27.8889 10.4745 27.1329 10.8151 26.1529 10.8151C25.2103 10.8151 24.4029 10.4605 23.7309 9.75114C23.0683 9.03247 22.7369 8.15514 22.7369 7.11914C22.7369 6.08314 23.0683 5.21047 23.7309 4.50114C24.4029 3.78247 25.2103 3.42314 26.1529 3.42314C27.1329 3.42314 27.8889 3.76381 28.4209 4.44514V0.81914ZM25.0889 8.54714C25.4623 8.91114 25.9289 9.09314 26.4889 9.09314C27.0489 9.09314 27.5109 8.91114 27.8749 8.54714C28.2389 8.17381 28.4209 7.69781 28.4209 7.11914C28.4209 6.54047 28.2389 6.06914 27.8749 5.70514C27.5109 5.33181 27.0489 5.14514 26.4889 5.14514C25.9289 5.14514 25.4623 5.33181 25.0889 5.70514C24.7249 6.06914 24.5429 6.54047 24.5429 7.11914C24.5429 7.69781 24.7249 8.17381 25.0889 8.54714ZM37.8426 9.75114C37.1239 10.4605 36.2466 10.8151 35.2106 10.8151C34.1746 10.8151 33.2973 10.4605 32.5786 9.75114C31.8693 9.03247 31.5146 8.15514 31.5146 7.11914C31.5146 6.08314 31.8693 5.21047 32.5786 4.50114C33.2973 3.78247 34.1746 3.42314 35.2106 3.42314C36.2466 3.42314 37.1239 3.78247 37.8426 4.50114C38.5613 5.21047 38.9206 6.08314 38.9206 7.11914C38.9206 8.15514 38.5613 9.03247 37.8426 9.75114ZM33.8526 8.50514C34.2166 8.86914 34.6693 9.05114 35.2106 9.05114C35.7519 9.05114 36.2046 8.86914 36.5686 8.50514C36.9326 8.14114 37.1146 7.67914 37.1146 7.11914C37.1146 6.55914 36.9326 6.09714 36.5686 5.73314C36.2046 5.36914 35.7519 5.18714 35.2106 5.18714C34.6693 5.18714 34.2166 5.36914 33.8526 5.73314C33.4979 6.09714 33.3206 6.55914 33.3206 7.11914C33.3206 7.67914 33.4979 8.14114 33.8526 8.50514ZM44.2651 3.42314C45.2078 3.42314 46.0104 3.78247 46.6731 4.50114C47.3451 5.21047 47.6811 6.08314 47.6811 7.11914C47.6811 8.15514 47.3451 9.03247 46.6731 9.75114C46.0104 10.4605 45.2078 10.8151 44.2651 10.8151C43.2851 10.8151 42.5291 10.4745 41.9971 9.79314V10.6191H40.1911V0.81914H41.9971V4.44514C42.5291 3.76381 43.2851 3.42314 44.2651 3.42314ZM42.5431 8.54714C42.9071 8.91114 43.3691 9.09314 43.9291 9.09314C44.4891 9.09314 44.9511 8.91114 45.3151 8.54714C45.6884 8.17381 45.8751 7.69781 45.8751 7.11914C45.8751 6.54047 45.6884 6.06914 45.3151 5.70514C44.9511 5.33181 44.4891 5.14514 43.9291 5.14514C43.3691 5.14514 42.9071 5.33181 42.5431 5.70514C42.1791 6.06914 41.9971 6.54047 41.9971 7.11914C41.9971 7.69781 42.1791 8.17381 42.5431 8.54714ZM50.4808 7.86114C50.7235 8.73847 51.3815 9.17714 52.4548 9.17714C53.1455 9.17714 53.6681 8.94381 54.0228 8.47714L55.4788 9.31714C54.7881 10.3158 53.7708 10.8151 52.4268 10.8151C51.2695 10.8151 50.3408 10.4651 49.6408 9.76514C48.9408 9.06514 48.5908 8.18314 48.5908 7.11914C48.5908 6.06447 48.9361 5.18714 49.6268 4.48714C50.3175 3.77781 51.2041 3.42314 52.2868 3.42314C53.3135 3.42314 54.1581 3.77781 54.8208 4.48714C55.4928 5.19647 55.8288 6.07381 55.8288 7.11914C55.8288 7.35247 55.8055 7.59981 55.7588 7.86114H50.4808ZM50.4528 6.46114H54.0228C53.9201 5.98514 53.7055 5.63047 53.3788 5.39714C53.0615 5.16381 52.6975 5.04714 52.2868 5.04714C51.8015 5.04714 51.4001 5.17314 51.0828 5.42514C50.7655 5.66781 50.5555 6.01314 50.4528 6.46114ZM4.60196 17.8191C5.54463 17.8191 6.33796 18.1365 6.98196 18.7711C7.62596 19.4058 7.94796 20.1851 7.94796 21.1091C7.94796 22.0331 7.62596 22.8125 6.98196 23.4471C6.33796 24.0818 5.54463 24.3991 4.60196 24.3991H2.87996V27.6191H0.947964V17.8191H4.60196ZM4.60196 22.5931C5.01263 22.5931 5.3533 22.4531 5.62396 22.1731C5.89463 21.8838 6.02996 21.5291 6.02996 21.1091C6.02996 20.6798 5.89463 20.3251 5.62396 20.0451C5.3533 19.7651 5.01263 19.6251 4.60196 19.6251H2.87996V22.5931H4.60196ZM13.0138 20.4231C13.7791 20.4231 14.4091 20.6798 14.9038 21.1931C15.4078 21.7065 15.6598 22.4158 15.6598 23.3211V27.6191H13.8538V23.5451C13.8538 23.0785 13.7278 22.7238 13.4758 22.4811C13.2238 22.2291 12.8878 22.1031 12.4678 22.1031C12.0011 22.1031 11.6278 22.2478 11.3478 22.5371C11.0678 22.8265 10.9278 23.2605 10.9278 23.8391V27.6191H9.12178V17.8191H10.9278V21.4031C11.3664 20.7498 12.0618 20.4231 13.0138 20.4231ZM23.1659 26.7511C22.4472 27.4605 21.5699 27.8151 20.5339 27.8151C19.4979 27.8151 18.6205 27.4605 17.9019 26.7511C17.1925 26.0325 16.8379 25.1551 16.8379 24.1191C16.8379 23.0831 17.1925 22.2105 17.9019 21.5011C18.6205 20.7825 19.4979 20.4231 20.5339 20.4231C21.5699 20.4231 22.4472 20.7825 23.1659 21.5011C23.8845 22.2105 24.2439 23.0831 24.2439 24.1191C24.2439 25.1551 23.8845 26.0325 23.1659 26.7511ZM19.1759 25.5051C19.5399 25.8691 19.9925 26.0511 20.5339 26.0511C21.0752 26.0511 21.5279 25.8691 21.8919 25.5051C22.2559 25.1411 22.4379 24.6791 22.4379 24.1191C22.4379 23.5591 22.2559 23.0971 21.8919 22.7331C21.5279 22.3691 21.0752 22.1871 20.5339 22.1871C19.9925 22.1871 19.5399 22.3691 19.1759 22.7331C18.8212 23.0971 18.6439 23.5591 18.6439 24.1191C18.6439 24.6791 18.8212 25.1411 19.1759 25.5051ZM29.368 22.3551H27.786V25.2671C27.786 25.5098 27.8466 25.6871 27.968 25.7991C28.0893 25.9111 28.2666 25.9765 28.5 25.9951C28.7333 26.0045 29.0226 25.9998 29.368 25.9811V27.6191C28.1266 27.7591 27.2493 27.6425 26.736 27.2691C26.232 26.8958 25.98 26.2285 25.98 25.2671V22.3551H24.762V20.6191H25.98V19.2051L27.786 18.6591V20.6191H29.368V22.3551ZM36.3866 26.7511C35.6679 27.4605 34.7906 27.8151 33.7546 27.8151C32.7186 27.8151 31.8412 27.4605 31.1226 26.7511C30.4132 26.0325 30.0586 25.1551 30.0586 24.1191C30.0586 23.0831 30.4132 22.2105 31.1226 21.5011C31.8412 20.7825 32.7186 20.4231 33.7546 20.4231C34.7906 20.4231 35.6679 20.7825 36.3866 21.5011C37.1052 22.2105 37.4646 23.0831 37.4646 24.1191C37.4646 25.1551 37.1052 26.0325 36.3866 26.7511ZM32.3966 25.5051C32.7606 25.8691 33.2132 26.0511 33.7546 26.0511C34.2959 26.0511 34.7486 25.8691 35.1126 25.5051C35.4766 25.1411 35.6586 24.6791 35.6586 24.1191C35.6586 23.5591 35.4766 23.0971 35.1126 22.7331C34.7486 22.3691 34.2959 22.1871 33.7546 22.1871C33.2132 22.1871 32.7606 22.3691 32.3966 22.7331C32.0419 23.0971 31.8646 23.5591 31.8646 24.1191C31.8646 24.6791 32.0419 25.1411 32.3966 25.5051ZM40.2507 22.6071C40.2507 22.7938 40.372 22.9478 40.6147 23.0691C40.8667 23.1811 41.17 23.2838 41.5247 23.3771C41.8793 23.4611 42.234 23.5731 42.5887 23.7131C42.9433 23.8438 43.242 24.0678 43.4847 24.3851C43.7367 24.7025 43.8627 25.0991 43.8627 25.5751C43.8627 26.2938 43.592 26.8491 43.0507 27.2411C42.5187 27.6238 41.8513 27.8151 41.0487 27.8151C39.6113 27.8151 38.6313 27.2598 38.1087 26.1491L39.6767 25.2671C39.882 25.8738 40.3393 26.1771 41.0487 26.1771C41.6927 26.1771 42.0147 25.9765 42.0147 25.5751C42.0147 25.3885 41.8887 25.2391 41.6367 25.1271C41.394 25.0058 41.0953 24.8985 40.7407 24.8051C40.386 24.7118 40.0313 24.5951 39.6767 24.4551C39.322 24.3151 39.0187 24.0958 38.7667 23.7971C38.524 23.4891 38.4027 23.1065 38.4027 22.6491C38.4027 21.9585 38.6547 21.4171 39.1587 21.0251C39.672 20.6238 40.3067 20.4231 41.0627 20.4231C41.632 20.4231 42.15 20.5538 42.6167 20.8151C43.0833 21.0671 43.452 21.4311 43.7227 21.9071L42.1827 22.7471C41.9587 22.2711 41.5853 22.0331 41.0627 22.0331C40.8293 22.0331 40.6333 22.0845 40.4747 22.1871C40.3253 22.2898 40.2507 22.4298 40.2507 22.6071ZM48.9161 20.4231C49.6815 20.4231 50.3115 20.6798 50.8061 21.1931C51.3101 21.7065 51.5621 22.4158 51.5621 23.3211V27.6191H49.7561V23.5451C49.7561 23.0785 49.6301 22.7238 49.3781 22.4811C49.1261 22.2291 48.7901 22.1031 48.3701 22.1031C47.9035 22.1031 47.5301 22.2478 47.2501 22.5371C46.9701 22.8265 46.8301 23.2605 46.8301 23.8391V27.6191H45.0241V17.8191H46.8301V21.4031C47.2688 20.7498 47.9641 20.4231 48.9161 20.4231ZM59.0682 26.7511C58.3495 27.4605 57.4722 27.8151 56.4362 27.8151C55.4002 27.8151 54.5229 27.4605 53.8042 26.7511C53.0949 26.0325 52.7402 25.1551 52.7402 24.1191C52.7402 23.0831 53.0949 22.2105 53.8042 21.5011C54.5229 20.7825 55.4002 20.4231 56.4362 20.4231C57.4722 20.4231 58.3495 20.7825 59.0682 21.5011C59.7869 22.2105 60.1462 23.0831 60.1462 24.1191C60.1462 25.1551 59.7869 26.0325 59.0682 26.7511ZM55.0782 25.5051C55.4422 25.8691 55.8949 26.0511 56.4362 26.0511C56.9775 26.0511 57.4302 25.8691 57.7942 25.5051C58.1582 25.1411 58.3402 24.6791 58.3402 24.1191C58.3402 23.5591 58.1582 23.0971 57.7942 22.7331C57.4302 22.3691 56.9775 22.1871 56.4362 22.1871C55.8949 22.1871 55.4422 22.3691 55.0782 22.7331C54.7235 23.0971 54.5462 23.5591 54.5462 24.1191C54.5462 24.6791 54.7235 25.1411 55.0782 25.5051ZM65.4907 20.4231C66.4334 20.4231 67.236 20.7825 67.8987 21.5011C68.5707 22.2105 68.9067 23.0831 68.9067 24.1191C68.9067 25.1551 68.5707 26.0325 67.8987 26.7511C67.236 27.4605 66.4334 27.8151 65.4907 27.8151C64.5107 27.8151 63.7547 27.4745 63.2227 26.7931V30.4191H61.4167V20.6191H63.2227V21.4451C63.7547 20.7638 64.5107 20.4231 65.4907 20.4231ZM63.7687 25.5471C64.1327 25.9111 64.5947 26.0931 65.1547 26.0931C65.7147 26.0931 66.1767 25.9111 66.5407 25.5471C66.914 25.1738 67.1007 24.6978 67.1007 24.1191C67.1007 23.5405 66.914 23.0691 66.5407 22.7051C66.1767 22.3318 65.7147 22.1451 65.1547 22.1451C64.5947 22.1451 64.1327 22.3318 63.7687 22.7051C63.4047 23.0691 63.2227 23.5405 63.2227 24.1191C63.2227 24.6978 63.4047 25.1738 63.7687 25.5471Z" fill="#828282"/>
</svg>
