<svg width="79" height="28" viewBox="0 0 79 28" fill="none" xmlns="http://www.w3.org/2000/svg">
<path d="M23.8038 10.5977L23.2158 8.83366H19.3098L18.7218 10.5977H16.6358L20.0658 0.797656H22.4598L25.9038 10.5977H23.8038ZM19.9258 7.02766H22.6138L21.2698 3.02366L19.9258 7.02766ZM31.886 0.797656H33.692V10.5977H31.886V9.77166C31.354 10.453 30.598 10.7937 29.618 10.7937C28.6753 10.7937 27.868 10.439 27.196 9.72966C26.5333 9.01099 26.202 8.13366 26.202 7.09766C26.202 6.06166 26.5333 5.18899 27.196 4.47966C27.868 3.76099 28.6753 3.40166 29.618 3.40166C30.598 3.40166 31.354 3.74232 31.886 4.42366V0.797656ZM28.554 8.52566C28.9273 8.88966 29.394 9.07166 29.954 9.07166C30.514 9.07166 30.976 8.88966 31.34 8.52566C31.704 8.15232 31.886 7.67632 31.886 7.09766C31.886 6.51899 31.704 6.04766 31.34 5.68366C30.976 5.31032 30.514 5.12366 29.954 5.12366C29.394 5.12366 28.9273 5.31032 28.554 5.68366C28.19 6.04766 28.008 6.51899 28.008 7.09766C28.008 7.67632 28.19 8.15232 28.554 8.52566ZM41.3077 9.72966C40.589 10.439 39.7117 10.7937 38.6757 10.7937C37.6397 10.7937 36.7623 10.439 36.0437 9.72966C35.3343 9.01099 34.9797 8.13366 34.9797 7.09766C34.9797 6.06166 35.3343 5.18899 36.0437 4.47966C36.7623 3.76099 37.6397 3.40166 38.6757 3.40166C39.7117 3.40166 40.589 3.76099 41.3077 4.47966C42.0263 5.18899 42.3857 6.06166 42.3857 7.09766C42.3857 8.13366 42.0263 9.01099 41.3077 9.72966ZM37.3177 8.48366C37.6817 8.84766 38.1343 9.02966 38.6757 9.02966C39.217 9.02966 39.6697 8.84766 40.0337 8.48366C40.3977 8.11966 40.5797 7.65766 40.5797 7.09766C40.5797 6.53766 40.3977 6.07566 40.0337 5.71166C39.6697 5.34766 39.217 5.16566 38.6757 5.16566C38.1343 5.16566 37.6817 5.34766 37.3177 5.71166C36.963 6.07566 36.7857 6.53766 36.7857 7.09766C36.7857 7.65766 36.963 8.11966 37.3177 8.48366ZM47.7302 3.40166C48.6728 3.40166 49.4755 3.76099 50.1382 4.47966C50.8102 5.18899 51.1462 6.06166 51.1462 7.09766C51.1462 8.13366 50.8102 9.01099 50.1382 9.72966C49.4755 10.439 48.6728 10.7937 47.7302 10.7937C46.7502 10.7937 45.9942 10.453 45.4622 9.77166V10.5977H43.6562V0.797656H45.4622V4.42366C45.9942 3.74232 46.7502 3.40166 47.7302 3.40166ZM46.0082 8.52566C46.3722 8.88966 46.8342 9.07166 47.3942 9.07166C47.9542 9.07166 48.4162 8.88966 48.7802 8.52566C49.1535 8.15232 49.3402 7.67632 49.3402 7.09766C49.3402 6.51899 49.1535 6.04766 48.7802 5.68366C48.4162 5.31032 47.9542 5.12366 47.3942 5.12366C46.8342 5.12366 46.3722 5.31032 46.0082 5.68366C45.6442 6.04766 45.4622 6.51899 45.4622 7.09766C45.4622 7.67632 45.6442 8.15232 46.0082 8.52566ZM53.9458 7.83966C54.1885 8.71699 54.8465 9.15566 55.9198 9.15566C56.6105 9.15566 57.1332 8.92232 57.4878 8.45566L58.9438 9.29566C58.2532 10.2943 57.2358 10.7937 55.8918 10.7937C54.7345 10.7937 53.8058 10.4437 53.1058 9.74366C52.4058 9.04366 52.0558 8.16166 52.0558 7.09766C52.0558 6.04299 52.4012 5.16566 53.0918 4.46566C53.7825 3.75632 54.6692 3.40166 55.7518 3.40166C56.7785 3.40166 57.6232 3.75632 58.2858 4.46566C58.9578 5.17499 59.2938 6.05232 59.2938 7.09766C59.2938 7.33099 59.2705 7.57832 59.2238 7.83966H53.9458ZM53.9178 6.43966H57.4878C57.3852 5.96366 57.1705 5.60899 56.8438 5.37566C56.5265 5.14232 56.1625 5.02566 55.7518 5.02566C55.2665 5.02566 54.8652 5.15166 54.5478 5.40366C54.2305 5.64632 54.0205 5.99166 53.9178 6.43966ZM7.89661 27.5977L7.30861 25.8337H3.40261L2.81461 27.5977H0.728611L4.15861 17.7977H6.55261L9.99661 27.5977H7.89661ZM4.01861 24.0277H6.70661L5.36261 20.0237L4.01861 24.0277ZM14.4251 19.3377C13.4358 19.263 12.9411 19.6597 12.9411 20.5277V20.5977H14.4251V22.3337H12.9411V27.5977H11.1351V22.3337H10.1271V20.5977H11.1351V20.5277C11.1351 19.5383 11.4104 18.787 11.9611 18.2737C12.5118 17.7603 13.3331 17.5363 14.4251 17.6017V19.3377ZM19.4756 22.3337H17.8936V25.2457C17.8936 25.4883 17.9543 25.6657 18.0756 25.7777C18.1969 25.8897 18.3743 25.955 18.6076 25.9737C18.8409 25.983 19.1303 25.9783 19.4756 25.9597V27.5977C18.2343 27.7377 17.3569 27.621 16.8436 27.2477C16.3396 26.8743 16.0876 26.207 16.0876 25.2457V22.3337H14.8696V20.5977H16.0876V19.1837L17.8936 18.6377V20.5977H19.4756V22.3337ZM22.0562 24.8397C22.2989 25.717 22.9569 26.1557 24.0302 26.1557C24.7209 26.1557 25.2435 25.9223 25.5982 25.4557L27.0542 26.2957C26.3635 27.2943 25.3462 27.7937 24.0022 27.7937C22.8449 27.7937 21.9162 27.4437 21.2162 26.7437C20.5162 26.0437 20.1662 25.1617 20.1662 24.0977C20.1662 23.043 20.5115 22.1657 21.2022 21.4657C21.8929 20.7563 22.7795 20.4017 23.8622 20.4017C24.8889 20.4017 25.7335 20.7563 26.3962 21.4657C27.0682 22.175 27.4042 23.0523 27.4042 24.0977C27.4042 24.331 27.3809 24.5783 27.3342 24.8397H22.0562ZM22.0282 23.4397H25.5982C25.4955 22.9637 25.2809 22.609 24.9542 22.3757C24.6369 22.1423 24.2729 22.0257 23.8622 22.0257C23.3769 22.0257 22.9755 22.1517 22.6582 22.4037C22.3409 22.6463 22.1309 22.9917 22.0282 23.4397ZM30.471 21.8017C30.639 21.3537 30.9143 21.0177 31.297 20.7937C31.689 20.5697 32.123 20.4577 32.599 20.4577V22.4737C32.0483 22.4083 31.5536 22.5203 31.115 22.8097C30.6856 23.099 30.471 23.5797 30.471 24.2517V27.5977H28.665V20.5977H30.471V21.8017ZM39.1712 25.7497H43.3012V27.5977H37.2392V17.7977H43.2312V19.6457H39.1712V21.7317H42.8812V23.5517H39.1712V25.7497ZM52.223 19.1977C51.2337 19.123 50.739 19.5197 50.739 20.3877V20.5977H52.223V22.3337H50.739V27.5977H48.933V22.3337H46.861V27.5977H45.055V22.3337H44.047V20.5977H45.055V20.5277C45.055 19.5383 45.3304 18.787 45.881 18.2737C46.4317 17.7603 47.253 17.5363 48.345 17.6017V19.3377C47.3557 19.263 46.861 19.6597 46.861 20.5277V20.5977H48.933V20.3877C48.933 19.3983 49.2084 18.647 49.759 18.1337C50.319 17.6203 51.1404 17.3963 52.223 17.4617V19.1977ZM54.3218 24.8397C54.5645 25.717 55.2225 26.1557 56.2958 26.1557C56.9865 26.1557 57.5091 25.9223 57.8638 25.4557L59.3198 26.2957C58.6291 27.2943 57.6118 27.7937 56.2678 27.7937C55.1105 27.7937 54.1818 27.4437 53.4818 26.7437C52.7818 26.0437 52.4318 25.1617 52.4318 24.0977C52.4318 23.043 52.7771 22.1657 53.4678 21.4657C54.1585 20.7563 55.0451 20.4017 56.1278 20.4017C57.1545 20.4017 57.9991 20.7563 58.6618 21.4657C59.3338 22.175 59.6698 23.0523 59.6698 24.0977C59.6698 24.331 59.6465 24.5783 59.5998 24.8397H54.3218ZM54.2938 23.4397H57.8638C57.7611 22.9637 57.5465 22.609 57.2198 22.3757C56.9025 22.1423 56.5385 22.0257 56.1278 22.0257C55.6425 22.0257 55.2411 22.1517 54.9238 22.4037C54.6065 22.6463 54.3965 22.9917 54.2938 23.4397ZM64.2079 27.7937C63.1532 27.7937 62.2712 27.439 61.5619 26.7297C60.8619 26.0203 60.5119 25.143 60.5119 24.0977C60.5119 23.0523 60.8619 22.175 61.5619 21.4657C62.2712 20.7563 63.1532 20.4017 64.2079 20.4017C64.8892 20.4017 65.5099 20.565 66.0699 20.8917C66.6299 21.2183 67.0546 21.657 67.3439 22.2077L65.7899 23.1177C65.6499 22.8283 65.4352 22.5997 65.1459 22.4317C64.8659 22.2637 64.5486 22.1797 64.1939 22.1797C63.6526 22.1797 63.2046 22.3617 62.8499 22.7257C62.4952 23.0803 62.3179 23.5377 62.3179 24.0977C62.3179 24.6483 62.4952 25.1057 62.8499 25.4697C63.2046 25.8243 63.6526 26.0017 64.1939 26.0017C64.5579 26.0017 64.8799 25.9223 65.1599 25.7637C65.4492 25.5957 65.6639 25.367 65.8039 25.0777L67.3719 25.9737C67.0639 26.5243 66.6299 26.9677 66.0699 27.3037C65.5099 27.6303 64.8892 27.7937 64.2079 27.7937ZM72.3311 22.3337H70.7491V25.2457C70.7491 25.4883 70.8097 25.6657 70.9311 25.7777C71.0524 25.8897 71.2297 25.955 71.4631 25.9737C71.6964 25.983 71.9857 25.9783 72.3311 25.9597V27.5977C71.0897 27.7377 70.2124 27.621 69.6991 27.2477C69.1951 26.8743 68.9431 26.207 68.9431 25.2457V22.3337H67.7251V20.5977H68.9431V19.1837L70.7491 18.6377V20.5977H72.3311V22.3337ZM75.12 22.5857C75.12 22.7723 75.2414 22.9263 75.484 23.0477C75.736 23.1597 76.0394 23.2623 76.394 23.3557C76.7487 23.4397 77.1034 23.5517 77.458 23.6917C77.8127 23.8223 78.1114 24.0463 78.354 24.3637C78.606 24.681 78.732 25.0777 78.732 25.5537C78.732 26.2723 78.4614 26.8277 77.92 27.2197C77.388 27.6023 76.7207 27.7937 75.918 27.7937C74.4807 27.7937 73.5007 27.2383 72.978 26.1277L74.546 25.2457C74.7514 25.8523 75.2087 26.1557 75.918 26.1557C76.562 26.1557 76.884 25.955 76.884 25.5537C76.884 25.367 76.758 25.2177 76.506 25.1057C76.2634 24.9843 75.9647 24.877 75.61 24.7837C75.2554 24.6903 74.9007 24.5737 74.546 24.4337C74.1914 24.2937 73.888 24.0743 73.636 23.7757C73.3934 23.4677 73.272 23.085 73.272 22.6277C73.272 21.937 73.524 21.3957 74.028 21.0037C74.5414 20.6023 75.176 20.4017 75.932 20.4017C76.5014 20.4017 77.0194 20.5323 77.486 20.7937C77.9527 21.0457 78.3214 21.4097 78.592 21.8857L77.052 22.7257C76.828 22.2497 76.4547 22.0117 75.932 22.0117C75.6987 22.0117 75.5027 22.063 75.344 22.1657C75.1947 22.2683 75.12 22.4083 75.12 22.5857Z" fill="#828282"/>
</svg>
