<svg width="62" height="28" viewBox="0 0 62 28" fill="none" xmlns="http://www.w3.org/2000/svg">
<path d="M14.448 10.5977L13.86 8.83366H9.95395L9.36595 10.5977H7.27995L10.71 0.797656H13.104L16.548 10.5977H14.448ZM10.57 7.02766H13.258L11.914 3.02366L10.57 7.02766ZM22.5301 0.797656H24.3361V10.5977H22.5301V9.77166C21.9981 10.453 21.2421 10.7937 20.2621 10.7937C19.3194 10.7937 18.5121 10.439 17.8401 9.72966C17.1774 9.01099 16.8461 8.13366 16.8461 7.09766C16.8461 6.06166 17.1774 5.18899 17.8401 4.47966C18.5121 3.76099 19.3194 3.40166 20.2621 3.40166C21.2421 3.40166 21.9981 3.74232 22.5301 4.42366V0.797656ZM19.1981 8.52566C19.5714 8.88966 20.0381 9.07166 20.5981 9.07166C21.1581 9.07166 21.6201 8.88966 21.9841 8.52566C22.3481 8.15232 22.5301 7.67632 22.5301 7.09766C22.5301 6.51899 22.3481 6.04766 21.9841 5.68366C21.6201 5.31032 21.1581 5.12366 20.5981 5.12366C20.0381 5.12366 19.5714 5.31032 19.1981 5.68366C18.8341 6.04766 18.6521 6.51899 18.6521 7.09766C18.6521 7.67632 18.8341 8.15232 19.1981 8.52566ZM31.9518 9.72966C31.2331 10.439 30.3558 10.7937 29.3198 10.7937C28.2838 10.7937 27.4064 10.439 26.6878 9.72966C25.9784 9.01099 25.6238 8.13366 25.6238 7.09766C25.6238 6.06166 25.9784 5.18899 26.6878 4.47966C27.4064 3.76099 28.2838 3.40166 29.3198 3.40166C30.3558 3.40166 31.2331 3.76099 31.9518 4.47966C32.6704 5.18899 33.0298 6.06166 33.0298 7.09766C33.0298 8.13366 32.6704 9.01099 31.9518 9.72966ZM27.9618 8.48366C28.3258 8.84766 28.7784 9.02966 29.3198 9.02966C29.8611 9.02966 30.3138 8.84766 30.6778 8.48366C31.0418 8.11966 31.2238 7.65766 31.2238 7.09766C31.2238 6.53766 31.0418 6.07566 30.6778 5.71166C30.3138 5.34766 29.8611 5.16566 29.3198 5.16566C28.7784 5.16566 28.3258 5.34766 27.9618 5.71166C27.6071 6.07566 27.4298 6.53766 27.4298 7.09766C27.4298 7.65766 27.6071 8.11966 27.9618 8.48366ZM38.3743 3.40166C39.3169 3.40166 40.1196 3.76099 40.7823 4.47966C41.4543 5.18899 41.7903 6.06166 41.7903 7.09766C41.7903 8.13366 41.4543 9.01099 40.7823 9.72966C40.1196 10.439 39.3169 10.7937 38.3743 10.7937C37.3943 10.7937 36.6383 10.453 36.1063 9.77166V10.5977H34.3003V0.797656H36.1063V4.42366C36.6383 3.74232 37.3943 3.40166 38.3743 3.40166ZM36.6523 8.52566C37.0163 8.88966 37.4783 9.07166 38.0383 9.07166C38.5983 9.07166 39.0603 8.88966 39.4243 8.52566C39.7976 8.15232 39.9843 7.67632 39.9843 7.09766C39.9843 6.51899 39.7976 6.04766 39.4243 5.68366C39.0603 5.31032 38.5983 5.12366 38.0383 5.12366C37.4783 5.12366 37.0163 5.31032 36.6523 5.68366C36.2883 6.04766 36.1063 6.51899 36.1063 7.09766C36.1063 7.67632 36.2883 8.15232 36.6523 8.52566ZM44.59 7.83966C44.8326 8.71699 45.4906 9.15566 46.564 9.15566C47.2546 9.15566 47.7773 8.92232 48.132 8.45566L49.588 9.29566C48.8973 10.2943 47.88 10.7937 46.536 10.7937C45.3786 10.7937 44.45 10.4437 43.75 9.74366C43.05 9.04366 42.7 8.16166 42.7 7.09766C42.7 6.04299 43.0453 5.16566 43.736 4.46566C44.4266 3.75632 45.3133 3.40166 46.396 3.40166C47.4226 3.40166 48.2673 3.75632 48.93 4.46566C49.602 5.17499 49.938 6.05232 49.938 7.09766C49.938 7.33099 49.9146 7.57832 49.868 7.83966H44.59ZM44.562 6.43966H48.132C48.0293 5.96366 47.8146 5.60899 47.488 5.37566C47.1706 5.14232 46.8066 5.02566 46.396 5.02566C45.9106 5.02566 45.5093 5.15166 45.192 5.40366C44.8746 5.64632 44.6646 5.99166 44.562 6.43966ZM0.382326 17.7977H2.31433V27.5977H0.382326V17.7977ZM4.04442 27.5977V17.3777H5.85042V27.5977H4.04442ZM7.5034 27.5977V17.3777H9.3094V27.5977H7.5034ZM15.5824 20.5977H17.3884V27.5977H15.5824V26.8137C15.1437 27.467 14.4484 27.7937 13.4964 27.7937C12.7311 27.7937 12.0964 27.537 11.5924 27.0237C11.0977 26.5103 10.8504 25.801 10.8504 24.8957V20.5977H12.6564V24.6717C12.6564 25.1383 12.7824 25.4977 13.0344 25.7497C13.2864 25.9923 13.6224 26.1137 14.0424 26.1137C14.5091 26.1137 14.8824 25.969 15.1624 25.6797C15.4424 25.3903 15.5824 24.9563 15.5824 24.3777V20.5977ZM20.6538 22.5857C20.6538 22.7723 20.7751 22.9263 21.0178 23.0477C21.2698 23.1597 21.5731 23.2623 21.9278 23.3557C22.2824 23.4397 22.6371 23.5517 22.9918 23.6917C23.3464 23.8223 23.6451 24.0463 23.8878 24.3637C24.1398 24.681 24.2658 25.0777 24.2658 25.5537C24.2658 26.2723 23.9951 26.8277 23.4538 27.2197C22.9218 27.6023 22.2544 27.7937 21.4518 27.7937C20.0144 27.7937 19.0344 27.2383 18.5118 26.1277L20.0798 25.2457C20.2851 25.8523 20.7424 26.1557 21.4518 26.1557C22.0958 26.1557 22.4178 25.955 22.4178 25.5537C22.4178 25.367 22.2918 25.2177 22.0398 25.1057C21.7971 24.9843 21.4984 24.877 21.1438 24.7837C20.7891 24.6903 20.4344 24.5737 20.0798 24.4337C19.7251 24.2937 19.4218 24.0743 19.1698 23.7757C18.9271 23.4677 18.8058 23.085 18.8058 22.6277C18.8058 21.937 19.0578 21.3957 19.5618 21.0037C20.0751 20.6023 20.7098 20.4017 21.4658 20.4017C22.0351 20.4017 22.5531 20.5323 23.0198 20.7937C23.4864 21.0457 23.8551 21.4097 24.1258 21.8857L22.5858 22.7257C22.3618 22.2497 21.9884 22.0117 21.4658 22.0117C21.2324 22.0117 21.0364 22.063 20.8778 22.1657C20.7284 22.2683 20.6538 22.4083 20.6538 22.5857ZM29.2262 22.3337H27.6442V25.2457C27.6442 25.4883 27.7048 25.6657 27.8262 25.7777C27.9475 25.8897 28.1248 25.955 28.3582 25.9737C28.5915 25.983 28.8808 25.9783 29.2262 25.9597V27.5977C27.9848 27.7377 27.1075 27.621 26.5942 27.2477C26.0902 26.8743 25.8382 26.207 25.8382 25.2457V22.3337H24.6202V20.5977H25.8382V19.1837L27.6442 18.6377V20.5977H29.2262V22.3337ZM32.4149 21.8017C32.5829 21.3537 32.8582 21.0177 33.2409 20.7937C33.6329 20.5697 34.0669 20.4577 34.5429 20.4577V22.4737C33.9922 22.4083 33.4975 22.5203 33.0589 22.8097C32.6295 23.099 32.4149 23.5797 32.4149 24.2517V27.5977H30.6089V20.5977H32.4149V21.8017ZM40.6593 20.5977H42.4653V27.5977H40.6593V26.7717C40.118 27.453 39.3573 27.7937 38.3773 27.7937C37.444 27.7937 36.6413 27.439 35.9693 26.7297C35.3067 26.011 34.9753 25.1337 34.9753 24.0977C34.9753 23.0617 35.3067 22.189 35.9693 21.4797C36.6413 20.761 37.444 20.4017 38.3773 20.4017C39.3573 20.4017 40.118 20.7423 40.6593 21.4237V20.5977ZM37.3273 25.5257C37.6913 25.8897 38.1533 26.0717 38.7133 26.0717C39.2733 26.0717 39.7353 25.8897 40.0993 25.5257C40.4727 25.1523 40.6593 24.6763 40.6593 24.0977C40.6593 23.519 40.4727 23.0477 40.0993 22.6837C39.7353 22.3103 39.2733 22.1237 38.7133 22.1237C38.1533 22.1237 37.6913 22.3103 37.3273 22.6837C36.9633 23.0477 36.7813 23.519 36.7813 24.0977C36.7813 24.6763 36.9633 25.1523 37.3273 25.5257ZM48.107 22.3337H46.525V25.2457C46.525 25.4883 46.5857 25.6657 46.707 25.7777C46.8283 25.8897 47.0057 25.955 47.239 25.9737C47.4723 25.983 47.7617 25.9783 48.107 25.9597V27.5977C46.8657 27.7377 45.9883 27.621 45.475 27.2477C44.971 26.8743 44.719 26.207 44.719 25.2457V22.3337H43.501V20.5977H44.719V19.1837L46.525 18.6377V20.5977H48.107V22.3337ZM55.1256 26.7297C54.4069 27.439 53.5296 27.7937 52.4936 27.7937C51.4576 27.7937 50.5803 27.439 49.8616 26.7297C49.1523 26.011 48.7976 25.1337 48.7976 24.0977C48.7976 23.0617 49.1523 22.189 49.8616 21.4797C50.5803 20.761 51.4576 20.4017 52.4936 20.4017C53.5296 20.4017 54.4069 20.761 55.1256 21.4797C55.8443 22.189 56.2036 23.0617 56.2036 24.0977C56.2036 25.1337 55.8443 26.011 55.1256 26.7297ZM51.1356 25.4837C51.4996 25.8477 51.9523 26.0297 52.4936 26.0297C53.0349 26.0297 53.4876 25.8477 53.8516 25.4837C54.2156 25.1197 54.3976 24.6577 54.3976 24.0977C54.3976 23.5377 54.2156 23.0757 53.8516 22.7117C53.4876 22.3477 53.0349 22.1657 52.4936 22.1657C51.9523 22.1657 51.4996 22.3477 51.1356 22.7117C50.7809 23.0757 50.6036 23.5377 50.6036 24.0977C50.6036 24.6577 50.7809 25.1197 51.1356 25.4837ZM59.2801 21.8017C59.4481 21.3537 59.7234 21.0177 60.1061 20.7937C60.4981 20.5697 60.9321 20.4577 61.4081 20.4577V22.4737C60.8574 22.4083 60.3628 22.5203 59.9241 22.8097C59.4948 23.099 59.2801 23.5797 59.2801 24.2517V27.5977H57.4741V20.5977H59.2801V21.8017Z" fill="#828282"/>
</svg>
