<svg width="40" height="14" viewBox="0 0 40 14" fill="none" xmlns="http://www.w3.org/2000/svg">
<path d="M6.78963 2.29019H2.86963V4.61419H6.67763V6.46219H2.86963V10.2422H0.937626V0.442187H6.78963V2.29019ZM9.00939 2.40219C8.71073 2.40219 8.44939 2.29485 8.22539 2.08019C8.01073 1.85619 7.90339 1.59485 7.90339 1.29619C7.90339 0.997521 8.01073 0.736187 8.22539 0.512187C8.44939 0.288187 8.71073 0.176187 9.00939 0.176187C9.31739 0.176187 9.57873 0.288187 9.79339 0.512187C10.0174 0.736187 10.1294 0.997521 10.1294 1.29619C10.1294 1.59485 10.0174 1.85619 9.79339 2.08019C9.57873 2.29485 9.31739 2.40219 9.00939 2.40219ZM8.11339 10.2422V3.24219H9.91939V10.2422H8.11339ZM16.9344 3.24219H18.6984V9.90619C18.6984 10.9889 18.339 11.8149 17.6204 12.3842C16.911 12.9535 16.0524 13.2382 15.0444 13.2382C14.2884 13.2382 13.621 13.0935 13.0424 12.8042C12.473 12.5149 12.0344 12.0902 11.7264 11.5302L13.2664 10.6482C13.621 11.3015 14.2324 11.6282 15.1004 11.6282C15.6697 11.6282 16.1177 11.4789 16.4444 11.1802C16.771 10.8815 16.9344 10.4569 16.9344 9.90619V9.15019C16.4024 9.85952 15.6557 10.2142 14.6944 10.2142C13.705 10.2142 12.8744 9.86885 12.2024 9.17819C11.5397 8.47819 11.2084 7.62885 11.2084 6.63019C11.2084 5.64085 11.5444 4.79619 12.2164 4.09619C12.8884 3.39619 13.7144 3.04619 14.6944 3.04619C15.6557 3.04619 16.4024 3.40085 16.9344 4.11019V3.24219ZM13.5604 8.01619C13.9337 8.37085 14.405 8.54819 14.9744 8.54819C15.5437 8.54819 16.0104 8.37085 16.3744 8.01619C16.7477 7.65219 16.9344 7.19019 16.9344 6.63019C16.9344 6.07952 16.7477 5.62685 16.3744 5.27219C16.0104 4.90819 15.5437 4.72619 14.9744 4.72619C14.405 4.72619 13.9337 4.90819 13.5604 5.27219C13.1964 5.62685 13.0144 6.07952 13.0144 6.63019C13.0144 7.19019 13.1964 7.65219 13.5604 8.01619ZM28.078 3.04619C28.8807 3.04619 29.52 3.30752 29.996 3.83019C30.4814 4.35285 30.724 5.05285 30.724 5.93019V10.2422H28.918V6.05619C28.918 5.63619 28.8154 5.30952 28.61 5.07619C28.4047 4.84285 28.1154 4.72619 27.742 4.72619C27.3314 4.72619 27.0094 4.86152 26.776 5.13219C26.552 5.40285 26.44 5.79485 26.44 6.30819V10.2422H24.634V6.05619C24.634 5.63619 24.5314 5.30952 24.326 5.07619C24.1207 4.84285 23.8314 4.72619 23.458 4.72619C23.0567 4.72619 22.7347 4.86152 22.492 5.13219C22.2587 5.40285 22.142 5.79485 22.142 6.30819V10.2422H20.336V3.24219H22.142V3.98419C22.562 3.35885 23.2107 3.04619 24.088 3.04619C24.9467 3.04619 25.5814 3.38219 25.992 4.05419C26.4587 3.38219 27.154 3.04619 28.078 3.04619ZM37.5779 3.24219H39.3839V10.2422H37.5779V9.41619C37.0366 10.0975 36.2759 10.4382 35.2959 10.4382C34.3626 10.4382 33.5599 10.0835 32.8879 9.37419C32.2253 8.65552 31.8939 7.77819 31.8939 6.74219C31.8939 5.70619 32.2253 4.83352 32.8879 4.12419C33.5599 3.40552 34.3626 3.04619 35.2959 3.04619C36.2759 3.04619 37.0366 3.38685 37.5779 4.06819V3.24219ZM34.2459 8.17019C34.6099 8.53419 35.0719 8.71619 35.6319 8.71619C36.1919 8.71619 36.6539 8.53419 37.0179 8.17019C37.3913 7.79685 37.5779 7.32085 37.5779 6.74219C37.5779 6.16352 37.3913 5.69219 37.0179 5.32819C36.6539 4.95485 36.1919 4.76819 35.6319 4.76819C35.0719 4.76819 34.6099 4.95485 34.2459 5.32819C33.8819 5.69219 33.6999 6.16352 33.6999 6.74219C33.6999 7.32085 33.8819 7.79685 34.2459 8.17019Z" fill="#828282"/>
</svg>
